PathFileType	4	(X/Y/Z)	abd.trc
DataRate	CameraRate	NumFrames	NumMarkers	Units	OrigDataRate	OrigDataStartFrame	OrigNumFrames
100.0	100.0	5	17	mm	100.0	1	1189
Frame#	Time	STER			XIPH			T10			T1			CLAV_SC			CLAV_AC			SCAP_AA			SCAP_CP			SCAP_TS			SCAP_IA			DELT			ARMl			EPICm			EPICl			LARM_elb			STYLr			STYLu		
		X1	Y1	Z1	X2	Y2	Z2	X3	Y3	Z3	X4	Y4	Z4	X5	Y5	Z5	X6	Y6	Z6	X7	Y7	Z7	X8	Y8	Z8	X9	Y9	Z9	X10	Y10	Z10	X11	Y11	Z11	X12	Y12	Z12	X13	Y13	Z13	X14	Y14	Z14	X15	Y15	Z15	X16	Y16	Z16	X17	Y17	Z17

1	0.0	391.6382141113281	90.0484848022461	1435.04736328125	388.92608642578125	138.7652587890625	1270.93896484375	376.7190246582031	-97.30198669433594	1241.933349609375	364.57177734375	-65.35148620605469	1476.51025390625	426.7547302246094	81.84712219238281	1439.4664306640625	573.859130859375	9.98437213897705	1457.478759765625	578.33056640625	-36.94554138183594	1444.0447998046875	519.6748046875	-42.59196472167969	1475.28466796875	501.5164489746094	-100.48121643066406	1424.8577880859375	481.69232177734375	-117.10029602050781	1284.7274169921875	638.9441528320312	-17.25193977355957	1305.3509521484375	655.7723388671875	-30.547107696533203	1258.244140625	627.7676391601562	2.23372483253479	1095.9886474609375	707.3311767578125	-37.1865234375	1147.6834716796875	650.6751708984375	-39.40620422363281	1089.767333984375	851.2591552734375	94.2489013671875	946.417236328125	784.9535522460938	66.73509979248047	906.4005737304688
2	0.01	391.6692199707031	90.08940124511719	1435.0552978515625	388.9578857421875	138.74656677246094	1270.9227294921875	376.7159118652344	-97.30194091796875	1241.916259765625	364.5835266113281	-65.36459350585938	1476.4981689453125	426.72235107421875	81.79765319824219	1439.426025390625	573.8748779296875	9.988697052001953	1457.4825439453125	578.3319702148438	-36.944923400878906	1444.041748046875	519.6780395507812	-42.57280349731445	1475.263671875	501.49456787109375	-100.4815902709961	1424.85693359375	481.6723937988281	-117.11417388916016	1284.746337890625	639.99755859375	-17.11178970336914	1305.2628173828125	655.4888916015625	-30.563730239868164	1258.0714111328125	627.6692504882812	2.1650190353393555	1095.9561767578125	707.3133544921875	-37.218746185302734	1147.672119140625	650.6720581054688	-39.44970703125	1089.7490234375	851.266357421875	94.13460540771484	946.3759765625	784.9122314453125	66.65705108642578	906.3594970703125
3	0.02	391.6388854980469	90.03070831298828	1435.0179443359375	388.93023681640625	138.70359802246094	1270.8775634765625	376.7515563964844	-97.31717681884766	1241.91455078125	364.6085510253906	-65.36457824707031	1476.5078125	427.36456298828125	81.8172836303711	1440.0147705078125	573.8789672851562	9.994215965270996	1457.4666748046875	578.3139038085938	-36.93966293334961	1444.011962890625	519.6478881835938	-42.57581329345703	1475.2623291015625	501.5141296386719	-100.48051452636719	1424.8330078125	481.67230224609375	-117.11412048339844	1284.7142333984375	638.9140625	-17.249042510986328	1305.3006591796875	655.4628295898438	-30.572093963623047	1258.0457763671875	627.707275390625	2.190615177154541	1095.994140625	707.2835083007812	-37.2485237121582	1147.6578369140625	650.634521484375	-39.47218704223633	1089.73779296875	851.2283325195312	94.09841918945312	946.3340454101562	784.9020385742188	66.56964111328125	906.3421020507812
4	0.03	391.2923278808594	90.02025604248047	1434.9000244140625	388.94091796875	138.6933135986328	1270.86962890625	376.7781677246094	-97.30213928222656	1241.910400390625	364.6205749511719	-65.34918212890625	1476.49658203125	426.5810241699219	81.54801177978516	1439.08447265625	573.8617553710938	10.004474639892578	1457.480224609375	578.33642578125	-36.93600082397461	1444.009765625	519.648681640625	-42.57600784301758	1475.26806640625	501.5164489746094	-100.48121643066406	1424.8577880859375	481.6981201171875	-117.11246490478516	1284.726806640625	638.97900390625	-17.23872947692871	1305.3233642578125	655.409423828125	-30.557340621948242	1258.0167236328125	627.6690673828125	2.1618692874908447	1095.933837890625	707.2561645507812	-37.263362884521484	1147.654296875	650.6005859375	-39.49699783325195	1089.736328125	851.169677734375	94.03067016601562	946.31201171875	784.8546752929688	66.52975463867188	906.29541015625
5	0.04	391.59307861328125	90.03780364990234	1434.9696044921875	388.9174499511719	138.66116333007812	1270.865234375	376.7832336425781	-97.33247375488281	1241.917724609375	364.5841369628906	-65.36421966552734	1476.487060546875	426.7432861328125	81.79994201660156	1439.4232177734375	573.8624267578125	10.005239486694336	1457.4830322265625	578.320556640625	-36.91373062133789	1444.0157470703125	519.665771484375	-42.57188034057617	1475.274658203125	501.5160827636719	-100.4819564819336	1424.8612060546875	481.6677551269531	-117.11092376708984	1284.738525390625	638.9532470703125	-17.227834701538086	1305.2984619140625	655.4271240234375	-30.569931030273438	1258.0439453125	627.6162109375	2.14547061920166	1095.91748046875	707.2189331054688	-37.28117370605469	1147.6368408203125	650.56201171875	-39.520816802978516	1089.718017578125	851.0659790039062	94.0247802734375	946.1788940429688	784.7744140625	66.47689056396484	906.241943359375
